/* XPM */
static char *a01a5fe622264629ce50cf5918923dc4Tzl3MfjANXnOY0YR[] = {
/* columns rows colors chars-per-pixel */
"64 64 90 1 ",
"  c None",
". c #000016",
"X c #000E2C",
"o c #001B37",
"O c #001D38",
"+ c #0A263F",
"@ c #0B2641",
"# c #0F2A43",
"$ c #152E47",
"% c #162F49",
"& c #163149",
"* c #1B344D",
"= c #1F3850",
"- c #20384F",
"; c #253D54",
": c #183F6C",
"> c #13455B",
", c #19495F",
"< c #2D435A",
"1 c #31475D",
"2 c #33495E",
"3 c #3F7F58",
"4 c #1D4C62",
"5 c #344762",
"6 c #364C61",
"7 c #384E62",
"8 c #235166",
"9 c #275469",
"0 c #2A566B",
"q c #2D596D",
"w c #3B5065",
"e c #3F5468",
"r c #305B6F",
"t c #274876",
"y c #2F5970",
"u c #335D71",
"i c #396F61",
"p c #356072",
"a c #396276",
"s c #3E6679",
"d c #43576A",
"f c #455A6D",
"g c #495C6F",
"h c #407667",
"j c #436A7D",
"k c #526475",
"l c #566879",
"z c #5B6B7C",
"x c #52A83F",
"c c #4F9B4E",
"v c #519C4F",
"b c #46845B",
"n c #529C51",
"m c #55A34D",
"M c #59AA4A",
"N c #5DB444",
"B c #56A151",
"V c #496E80",
"C c #4F7385",
"Z c #5E7080",
"A c #637483",
"S c #6B7B89",
"D c #73828F",
"F c #748490",
"G c #7A8693",
"H c #7A8894",
"J c #8E9AA4",
"K c #9098A3",
"L c #9FA9B0",
"P c #A3ACB3",
"I c #ABB2B9",
"U c #B1B9BE",
"Y c #B6BDC1",
"T c #BFC5C9",
"R c #C6CBCE",
"E c #CACED1",
"W c #CFD3D5",
"Q c #D3D7D7",
"! c #D5D7D8",
"~ c #D7DADB",
"^ c #D9DCDC",
"/ c #DEDFE0",
"( c #DDE0E0",
") c #E3E5E4",
"_ c #E7E9E7",
"` c #EBECEA",
"' c #F1F1EE",
"] c #F4F4F1",
"[ c #FCFBF6",
"{ c #FFFEFD",
/* pixels */
"                                                                ",
"                nB                                              ",
"               ncnn                                             ",
"               nnnn                                             ",
"              nnnnnn          uq0 u0                            ",
"              nnnnnn     p           0u                         ",
"              nnnnnm  u                 ur                      ",
"              nnnnnn                                            ",
"              nnnnnn                                            ",
"              nnnnnn                                            ",
"              nnnnnn                                            ",
"              mnnnnn                                n           ",
"              mnnnnnn                              Bnn          ",
"              vnnnnnn                              nnn          ",
"              nnnnnnn                              nnm          ",
"             vnnnnnnn                              nnM          ",
"             nnnnnnnn                              nnM :        ",
"             nnnnnnnn                              nnm  0       ",
"             nnnnnnnn                              nnn  t       ",
"             nnnnnnnn                              nnnm  0      ",
"             nnnnnnnn                       nn    nnnnm  4      ",
"             nnnnnnnn                       nnn   nnnnn   y     ",
"        n    nnnnnnnn                       nnn   nnnnn   u     ",
"       mnn   nnnnnnnn                       nnn   nnnnn    y    ",
"    u  Bnn   nnnnnnnn       77776666        nnn   nnnnn    u    ",
"       nnn   nnnnnnnn     ******676666      nnn   nnnnn    p    ",
"       nnn   nnnnnnnn    7ZAAZAA7166666     nnn   nnnnn     y   ",
"       nnn   nnnnnnnn   ;7]{`!/`f;667766    nnn   nnnnn     0   ",
"       nnn   nnnnnnnn   56FAAR_PO&e1&*67    nnn   nnnnn         ",
"       nnn   nnnBnnnm  576&XH_E2ZS<<SHe16   nnn   nnnvn     j   ",
"       nnn     nmMBn   66e@D')17{^@A{I*16   nMM   nvMmx     0j  ",
"       nnn             6e&f)/z.f_Pd)Y*<665   b      h        u  ",
"       mnn            66<6E~USSJQIU'k@d266                  9u  ",
"      iMnn            6w$S[!^'{_UT~!P*2666          q        0  ",
"  u   nnnn            66<dSAAAkGERIY)z%e66               q   0  ",
"  ss   nnM3            6e<&**-Of)R*K]I*16              0     a  ",
"  ur   NmN             626776w*z{W#f_[F*7           a0q     0a  ",
"                        6666661ezl6<kAk            08       uq  ",
"                        666666e1*=76-            0r     u   p   ",
"                 a       6666627776             q     8     q   ",
"                          6666666                   0       q   ",
"        q9                  666                   00        0   ",
"    u    q                                u            q   u    ",
"            q                                        0     q    ",
"        q     8                                            ,    ",
"     r         0q                                         a     ",
"                 9q                                   q0  ,     ",
"      q            9                                 0   8      ",
"       q      q     98                                  y9      ",
"       q        9     qa                                4       ",
"        j         q     q                              90       ",
"         q         0      9                           48        ",
"         q8    u     q      0                        q8         ",
"          8q     0     q                            00          ",
"           90            r                         04           ",
"            9q             0                      89            ",
"              0       u                          88             ",
"               08                               90              ",
"                00                            88                ",
"                  q8                        400                 ",
"                    00u                   08q                   ",
"                       90r>           0889                      ",
"                          CV49000q84000                         ",
"                              8098                              "
};
