/* XPM */
static char *_8712112d4634754dceeb228ff6cd5ffmaOtiIBX2aMEZPGY[] = {
/* columns rows colors chars-per-pixel */
"16 16 42 1 ",
"  c None",
". c #203750",
"X c #233A50",
"o c #273B53",
"O c #383E6F",
"+ c #3E785E",
"@ c #374C61",
"# c #515D6F",
"$ c #5C6B7C",
"% c #539F4E",
"& c #43825D",
"* c #49885C",
"= c #4C9354",
"- c #519A52",
"; c #529A53",
": c #519C50",
"> c #519D51",
", c #539C50",
"< c #549C52",
"1 c #559D54",
"2 c #559C56",
"3 c #57AA45",
"4 c #57AB47",
"5 c #57A74B",
"6 c #54A24D",
"7 c #56A44C",
"8 c #57A54D",
"9 c #56A848",
"0 c #58A84B",
"q c #59AF4B",
"w c #5AA84E",
"e c #5DB048",
"r c #5CB44A",
"t c #56A753",
"y c #62BA44",
"u c #6C7186",
"i c #697B89",
"p c #717097",
"a c #71838E",
"s c #919BA4",
"d c #DDDFDC",
"f c #F3F3F0",
/* pixels */
"    w           ",
"   ;0           ",
"   65           ",
"   4,        =  ",
"   4;        &  ",
"   <,       %1  ",
"  9,r  i.  q77  ",
" *e t pdaO   1  ",
" +y   $sfu      ",
"      Xo#       ",
"       @        ",
"                ",
"                ",
"                ",
"                ",
"                "
};
