/* XPM */
static char *c2c4e3b93c4f48ece11854ad2b8c60aa1ewBLnALByHpmuSI[] = {
/* columns rows colors chars-per-pixel */
"32 32 138 2 ",
"   c None",
".  c #112C45",
"X  c #162F4A",
"o  c #19324B",
"O  c #19324C",
"+  c #1C334C",
"@  c #213255",
"#  c #213951",
"$  c #223B53",
"%  c #233B53",
"&  c #233A54",
"*  c #273F55",
"=  c #283A51",
"-  c #2E3F51",
";  c #283F56",
":  c #2F3D62",
">  c #313A66",
",  c #353F69",
"<  c #18485E",
"1  c #2A4158",
"2  c #2F455C",
"3  c #32495B",
"4  c #31485D",
"5  c #334A5F",
"6  c #36495E",
"7  c #37495E",
"8  c #354A5F",
"9  c #39485D",
"0  c #384A5F",
"q  c #1F4E64",
"w  c #214F64",
"e  c #324262",
"r  c #334563",
"t  c #394567",
"y  c #344A60",
"u  c #364C61",
"i  c #374D62",
"p  c #384E62",
"a  c #394E63",
"s  c #3B4E66",
"d  c #215065",
"f  c #225066",
"g  c #245266",
"h  c #245267",
"j  c #245168",
"k  c #265368",
"l  c #285469",
"z  c #29566B",
"x  c #2A566B",
"c  c #2A576B",
"v  c #2C576C",
"b  c #3C5266",
"n  c #3F5468",
"m  c #3F5568",
"M  c #315C6F",
"N  c #315C70",
"B  c #2F6361",
"V  c #3A6276",
"C  c #43586B",
"Z  c #46596B",
"A  c #485B6E",
"S  c #505E70",
"D  c #506275",
"F  c #586B7B",
"G  c #4C964E",
"H  c #529F4D",
"J  c #509D4F",
"K  c #539F4E",
"L  c #529E4F",
"P  c #4B8F57",
"I  c #519B50",
"U  c #519A51",
"Y  c #529B50",
"T  c #529B51",
"R  c #519953",
"E  c #519A52",
"W  c #519B52",
"Q  c #529B52",
"!  c #539B53",
"~  c #519C50",
"^  c #529C50",
"/  c #529D50",
"(  c #529C51",
")  c #539C51",
"_  c #529D51",
"`  c #539F51",
"'  c #529C52",
"]  c #539C52",
"[  c #539C53",
"{  c #549D53",
"}  c #52A743",
"|  c #59AD45",
" . c #56A54B",
".. c #56A64A",
"X. c #53A04D",
"o. c #53A14E",
"O. c #54A24C",
"+. c #54A24D",
"@. c #54A04E",
"#. c #55A14E",
"$. c #54A04F",
"%. c #55A24F",
"&. c #56A44D",
"*. c #57A44E",
"=. c #56A54E",
"-. c #57A74E",
";. c #57A948",
":. c #59AA49",
">. c #58AB49",
",. c #5BAB4B",
"<. c #5AAC49",
"1. c #58AE4B",
"2. c #5EB742",
"3. c #5AB044",
"4. c #5BB244",
"5. c #5BB24E",
"6. c #55A351",
"7. c #478162",
"8. c #6A7988",
"9. c #7C8A96",
"0. c #87939E",
"q. c #8896A0",
"w. c #9CA7B0",
"e. c #9FA9B1",
"r. c #A2AAB0",
"t. c #AAAEB5",
"y. c #A7B2B8",
"u. c #AEB7BE",
"i. c #B3B6BA",
"p. c #B2B7BD",
"a. c #C0C3C7",
"s. c #C2C9CC",
"d. c #CBD0D2",
"f. c #CED4D5",
"g. c #D6D8D9",
"h. c #E2E2E2",
"j. c #F6F6F3",
"k. c #FBFAF5",
/* pixels */
"                !                                               ",
"              { J X.                                            ",
"              ( ! ;.                                            ",
"              ( ( :.                                            ",
"              ( ( +.                                            ",
"              +.( (                                             ",
"              +.! (                                 K           ",
"              H ( (                               H =.          ",
"              ( ( (                               { ,.B         ",
"              ( ( (                               ! :.          ",
"              H ( (                         (     ( X.          ",
"        |   R ( ( (                         (     ( +.          ",
"      } (   ( ( ( ( 6.      o O i a         ( J   ( (           ",
"      3.R   ( ( ! ! 5.  > y.w.e.1 ; % e     6.!   ( ! ..        ",
"      :.!     H >.=.    r Z h.f.y % F s     =...  +.=.4.        ",
"      <.!       7.    , X 8.i.9 u.q.e.& >   1.      G           ",
"      P *.            @ m j.a.r.s.k.A . t                       ",
"      ! 2.            3 m D Z 9.g.p.d.* -                       ",
"        +.              4 % . a 0.2 t.S                     M   ",
"                        8 y b 4 + =                             ",
"                          9 8 y                                 ",
"                                                                ",
"                                                          V     ",
"                                                                ",
"                                                        v       ",
"        N                                             q         ",
"          h                                         z           ",
"            z                                     d             ",
"              j                                 w               ",
"                                            < j                 ",
"                                          w                     ",
"                            h w z z z                           "
};
